<svg width="24" height="24" viewBox="0 0 24 24" fill="none" xmlns="http://www.w3.org/2000/svg">
<path fill-rule="evenodd" clip-rule="evenodd" d="M2.34499 2.24494C2.49426 2.11528 2.67861 2.03277 2.87476 2.00785C3.07091 1.98293 3.27004 2.01672 3.44699 2.10494L21.447 11.1049C21.6134 11.1879 21.7534 11.3156 21.8512 11.4737C21.9491 11.6318 22.0009 11.814 22.0009 11.9999C22.0009 12.1859 21.9491 12.3681 21.8512 12.5262C21.7534 12.6843 21.6134 12.812 21.447 12.8949L3.44699 21.8949C3.27005 21.9835 3.07083 22.0175 2.87453 21.9928C2.67823 21.9681 2.49368 21.8857 2.34423 21.756C2.19478 21.6264 2.08714 21.4553 2.03494 21.2645C1.98274 21.0736 1.98833 20.8716 2.05099 20.6839L4.61299 12.9999H9.99999C10.2652 12.9999 10.5196 12.8946 10.7071 12.7071C10.8946 12.5195 11 12.2652 11 11.9999C11 11.7347 10.8946 11.4804 10.7071 11.2928C10.5196 11.1053 10.2652 10.9999 9.99999 10.9999H4.61299L2.04999 3.31594C1.98765 3.12836 1.98231 2.9265 2.03464 2.73588C2.08696 2.54526 2.19561 2.37442 2.34499 2.24494Z" fill="#1B1B1F"/>
</svg>
